# xmcd
#
# Track frame offsets: 
#        150
#        30310
#        39085
#        48435
#        67713
#        82935
#        99953
#        140008
#        154558
#
# Disc length: 2548 seconds
#
# Revision: 8
# Processed by: cddbd v1.5.2PL0 Copyright (c) Steve Scherf et al.
# Submitted via: ExactAudioCopy v1.3
#
DISCID=5909f209
DTITLE=Emerson, Lake and Palmer - Trilogy
DYEAR=1972
DGENRE=Progressive Rock
TTITLE0=The Endless Enigma (Part 1)
TTITLE1=Fugue
TTITLE2=The Endless Enigma (Part 2)
TTITLE3=From The Beginning
TTITLE4=The Sheriff
TTITLE5=Hoedown (Taken From RODEO)
TTITLE6=Trilogy
TTITLE7=Living Sin
TTITLE8=Abaddon's Bolero
EXTD=YEAR: 1972
EXTT0=
EXTT1=
EXTT2=
EXTT3=
EXTT4=
EXTT5=
EXTT6=
EXTT7=
EXTT8=
PLAYORDER=
